<svg width="89" height="20" viewBox="0 0 89 20" fill="none" xmlns="http://www.w3.org/2000/svg">
<path d="M81.7373 20C79.6144 20 77.8267 19.0374 76.6255 17.5134V19.5722H73.7763V0H76.9887V7.83423C78.1619 6.57754 79.8379 5.7754 81.7373 5.7754C85.5921 5.7754 89 8.95722 89 12.8877C89 16.8182 85.5921 20 81.7373 20ZM76.9887 12.8877C76.9887 15.3209 78.9719 17.2727 81.4021 17.2727C83.8323 17.2727 85.8156 15.2941 85.8156 12.8877C85.8156 10.4545 83.8323 8.50267 81.4021 8.50267C78.9719 8.50267 76.9887 10.4545 76.9887 12.8877Z" fill="#24272D"/>
<path d="M63.4732 20C59.6184 20 56.2105 16.7924 56.2105 12.8302C56.2105 8.86792 59.6184 5.66037 63.4732 5.66037C65.5961 5.66037 67.4118 6.63072 68.6129 8.19406V6.09164H71.4342V19.5687H68.6129V17.4663C67.4118 19.0296 65.5961 20 63.4732 20ZM59.4229 12.8302C59.4229 15.2561 61.4061 17.2507 63.8363 17.2507C66.2665 17.2507 68.2498 15.283 68.2498 12.8302C68.2498 10.3774 66.2665 8.4097 63.8363 8.4097C61.4061 8.4097 59.4229 10.3774 59.4229 12.8302Z" fill="#24272D"/>
<path d="M53.3154 19.6226C50.686 19.6226 48.5716 17.9568 48.5716 15.4311V8.74074H45.6711V6.1882H48.5716V2.64151H51.6619V6.1882H55.4298V8.74074H51.6619V15.4311C51.6619 16.3446 52.4209 16.9895 53.3154 16.9895H55.4298V19.6226H53.3154Z" fill="#24272D"/>
<path d="M6.65615 20V3.08572H0V0H16.7851V3.08572H10.1289V20H6.65615Z" fill="#24272D"/>
<path d="M19.9079 0.00558472H25.3924V1.87899H22.31V18.1208H25.3924V19.9999H19.9079V0.00558472Z" fill="#F54E57"/>
<path d="M42.5482 19.9943H37.0637V18.1209H40.1461V1.87908H37.0637V0H42.5482V20V19.9943Z" fill="#F54E57"/>
</svg>
